<svg xmlns="http://www.w3.org/2000/svg" xmlns:xlink="http://www.w3.org/1999/xlink" xml:space="preserve" version="1.1" style="shape-rendering:geometricPrecision;text-rendering:geometricPrecision;image-rendering:optimizeQuality;" viewBox="0 0 50000 62500" x="0px" y="0px" fill-rule="evenodd" clip-rule="evenodd"><defs><style type="text/css">
   
    .fil0 {fill:black;fill-rule:nonzero}
   
  </style></defs><g><path class="fil0" d="M2096.52 28386.75l-950.7 2632.5c-129.8,359.44 -205.69,702.24 -232.09,1026.3 -57.18,701.76 121.92,1310.87 490.04,1806.36 374.33,503.85 945.57,896.63 1665.11,1156.48 3335.59,1204.57 6641.19,-692.13 9408.69,-2395.1 1970.35,-1212.45 3923.73,-2414.23 6170.64,-2687.8 170.19,-20.7 131.02,-1.68 131.26,-187.22l0.19 -145.51c0.23,-167.79 29.25,-148.26 -137.33,-129.69 -2564.48,286.1 -4694.53,1648.46 -6699.63,2931.12 -1761.52,1126.85 -3429.12,2193.61 -5244.33,2459.49 -1231.39,180.35 -2745.47,103.9 -3851.84,-484.68 -868.81,-462.19 -1396.49,-1195.3 -1376.17,-2190.84 21.07,-1032.97 613.01,-1605.28 1395.59,-1919.51 733.67,-294.61 1632.58,-350.21 2354.62,-353.65 3110.16,-14.79 5674.43,-64.84 8798.38,-470.97 1467.91,-190.87 2977.15,-387.09 4617.41,-468.5 165.46,-8.22 144.1,23.94 144.32,-137.41l0.15 -121.72c0.23,-178.63 32.92,-157.07 -141.52,-151.43 -1189.37,38.56 -2689.75,198.83 -4306.75,371.54 -4435.66,473.77 -9738.46,1039.87 -12236.04,-539.76zm38099.52 -2382.9c856.84,197.68 1715.07,517.64 2577.09,656.26 805.09,129.47 1464.33,26.67 1757.64,-745.28 113.15,-297.87 133.71,-290.74 -140.41,-404.15 -1357.83,-561.75 -2912.25,-99.1 -4234.83,330.27 -377.87,122.66 -309.68,82.09 40.51,162.9zm4749.88 191.43c-392.75,971.04 -1230.52,1102.58 -2248.04,938.93 -1289.75,-207.39 -2993.5,-990.98 -4222.29,-796.59 -850.48,209.43 -1842.61,373.58 -3089.11,403.86 -195.08,4.74 -176.73,-37.01 -176.76,148.59l-0.03 111.12c-0.04,181.89 8.78,129.21 208.75,146.55 1745.39,151.32 3052.63,738.26 4255.72,1278.48 1626.97,730.53 4733.26,1860.37 5841.39,-273.42 277.08,-533.55 273.32,-1160.96 -14.01,-1689.6 -62.56,-115.1 -138.6,-225.81 -228.13,-330.33 -276.98,-323.28 -208.65,-231.48 -327.49,62.41zm-9629.5 67.84c2118.53,-44.45 3492.87,-490.53 4690.48,-879.34 1842.24,-598.1 4762.97,-1271.5 5916.08,849.89 362.48,666.9 369.42,1465.73 19.65,2139.26 -1265.42,2436.65 -4560.44,1346.45 -6464.13,491.66 -1165.05,-523.14 -2430.85,-1091.44 -4094.52,-1237.67 -195.21,-17.15 -174.42,-50.38 -174.46,133.63l-0.04 156.11c-0.03,173.52 8.18,123.32 198.07,143.92 1494.03,162.09 2592.28,677.1 3672.93,1183.94 2199.81,1031.73 6069.3,2169.62 7509.03,-625.68 401.78,-780.06 403.1,-1701.12 14.9,-2486.65 -1297.82,-2626.25 -4679.44,-1921.58 -6887.18,-1189.54 -1261.88,418.42 -2643.84,876.58 -4392.86,951.78 -138.31,5.94 -114.42,-17.2 -114.46,123.84l-0.03 140.23c-0.04,126.56 -20.57,107.26 106.54,104.62zm-637.24 -3026.11c-37.85,-244.21 -104.58,-484.86 -219.32,-803.11 -111.96,-310.5 -863.88,-365.28 -714.52,59.37 269.68,766.79 269.87,920.24 270.56,1705.43 3.09,1965.06 6.43,3928.23 9.11,5894.24 0.35,223.47 737.56,262.24 737.56,34.35 0,-1841.39 -28.75,-3682.82 -31.78,-5524.54 -0.71,-448.28 16.7,-924.82 -51.61,-1365.74zm688.88 2175.11c1654.63,-81.26 2983.72,-521.91 4198.65,-924.77 2466.33,-817.8 6039.77,-1458.98 7468.54,1432.24 454.79,920.27 451.94,2005.7 -18.66,2919.38 -1572.07,3052.29 -5672.67,1997.05 -8139.3,840.17 -1020.97,-478.86 -2058.21,-965.28 -3432.57,-1130.55 -218.28,-26.23 -235.36,-79.76 -235.4,114.17l-0.03 134.94c-0.05,220.82 -19.4,166.67 208.06,206.07 1565.49,271.17 2578.84,747.24 3547.73,1202.43 8034.53,3774.76 11213.95,-3261.5 7464.04,-6003.78 -2205.6,-1612.9 -4957.56,-1016.42 -7293.53,-112.01 -1137.63,440.46 -2291.82,887.3 -3783.23,957.51 -171.85,8.09 -142.23,-21.99 -142.27,154.09l-0.02 74.08c-0.04,174.71 -23.67,144.92 157.99,136.03zm15.22 -846.28c1389.95,-75.63 2492.42,-502.41 3579.23,-923.21 2502.01,-968.7 5398.23,-1548.09 7750.7,172.22 4181.07,3057.6 664.65,10873.85 -7951.33,6825.96 -931.28,-437.52 -1904.96,-894.95 -3392.35,-1157.28 -184.17,-32.45 -160.37,-60.58 -160.41,118.51l-0.06 260.62c-0.05,223.23 -14.22,161.64 218.17,191.93 1055.87,137.77 2109.07,610.59 3200.73,1100.7 3248.73,1458.54 7846.68,2281.42 9872.95,-1538.11 784.34,-1478.47 762.52,-3273.12 130.33,-4801.49 -1664.65,-4024.41 -5837.49,-4425.53 -9478.98,-3118.54 -1121.89,402.66 -2296.78,824.35 -4147.85,846.08 70.67,223.37 117.61,418.64 148.88,620.39 48.69,314.26 57.1,632.88 57,1092.84l-0.03 124.02c-0.02,218.06 -41.26,197.02 173.02,185.36zm-15411.47 -436.59c0.44,-832.58 0.68,-1108.57 329.15,-2087.76 64.69,-192.84 123.58,-194.18 -31.02,-319.94 -61.94,-50.38 -138.18,-94.55 -218.12,-127.21 -363.43,-148.49 -334.84,-44.93 -445.33,256.71 -135.33,369.45 -266.98,676.31 -307.67,1075.85 -22.86,224.31 -29.91,496.21 -31.6,874.09 -9.31,2086.28 -6.16,4253.64 -8.43,6340.09 -0.25,238.63 703.54,258.75 703.94,-5.31 2.98,-1976.47 6.08,-4030.74 9.08,-6006.52zm647.36 166.98c783.6,258.2 1895.62,304.95 2711.78,303.43l10059.47 -18.54c186.31,-0.33 146.25,17.95 146,-179.48l-0.27 -202.94c-0.57,-648.15 -0.76,-823.64 -186.24,-1377.9 -106,-316.86 -45.22,-269.9 -371.89,-268.58l-9758.72 39.71c-743.72,3 -1494.81,-28.06 -2217.66,-209.19 -335.76,-84.13 -269.08,-141.51 -374.19,219.19 -159.63,547.57 -174.1,833.39 -175.67,1363.12 -0.72,242.25 -61.25,255.82 167.39,331.18zm12811 764.57l-10099.22 18.61c-866.6,1.59 -1920.79,-47.14 -2759.59,-295.78 -170.37,-50.51 -120.52,-30.54 -120.83,176.27 -0.16,105.83 -0.33,211.68 -0.52,317.51 -0.31,200.97 -30.22,165.75 173.79,165.75l12809.04 0c138.86,0 105.27,6.54 105,-144.57l-0.16 -87.33c-0.27,-155.69 34.92,-150.73 -107.51,-150.46zm-15.86 864l-12818.28 0c-165.74,0 -147.15,-32.09 -147.47,126.45l-0.21 103.22c-0.35,162.05 -26.93,136.54 134.46,136.54l12820.94 0c164.02,0 136.12,25.16 135.78,-140.45l-0.16 -82.03c-0.33,-162.5 30.82,-143.73 -125.06,-143.73zm10.66 847.86l-12875.27 0c-129.75,0 -102.6,-13.94 -102.89,122.65l-0.28 136.29c-0.33,151.13 -19.28,121.55 137.58,121.55l12846.14 0c145.48,0 111.41,9.21 111.08,-147.98l-0.18 -87.3c-0.35,-158.42 32.49,-145.21 -116.18,-145.21zm-5.28 862.13l-12846.14 0c-158.57,0 -128.22,-20.82 -128.53,142.9l-0.21 111.15c-0.33,168.29 -32.61,148.97 128.74,148.97l12848.8 0c154.38,0 121.05,14.88 120.74,-148.91l-0.22 -116.41c-0.3,-157.44 29.05,-137.7 -123.18,-137.7zm15.94 884.66l-12862.08 0c-157.57,0 -129.81,-23.31 -130.05,136.71l-0.18 124.33c-0.23,165.37 -29.34,141.98 132.83,141.98l12851.55 0c147.74,0 117.05,16.12 116.84,-139.25l-0.19 -140.26c-0.2,-140.34 26.39,-123.51 -108.72,-123.51zm-63.23 884.66l-12801.54 0c-168.96,0 -128.29,-8.3 -128.42,175.41 -0.03,45.87 -0.07,91.73 -0.09,137.59 -0.1,173.14 -32.88,152.46 133.81,152.05l11012.25 -27.02c345.97,-11.59 677.21,-12.12 995.06,-3 270.71,7.76 531.68,22.57 783.74,43.52 215.61,17.91 178.33,63.5 178.22,-170.76 -0.02,-37.04 -0.03,-74.09 -0.05,-111.12 -0.1,-223.48 42.07,-196.67 -172.98,-196.67zm1640.45 1217.97c-328.52,220.76 -972.29,126.05 -1272.66,-110.42 -190.58,-150.05 -29.18,-115.85 -285.5,-139.63 -282.09,-26.13 -576.42,-44.31 -884.4,-53.14 -307.95,-8.83 -629.73,-8.28 -966.83,2.99l-11048.52 27.08c-193.76,0.48 -84.76,8.78 -188.38,148.96 -87.55,118.4 -243.7,194.72 -429.17,232.4 -194.51,39.52 -424.85,39.03 -619.56,0.84 -164.13,-32.22 -308.67,-93.38 -406.66,-184.92 -176.52,-164.87 2.15,-170.99 -282.71,-133.22 -2111.28,279.93 -3996.92,1440.11 -5898.78,2610.42 -2924.24,1799.41 -6306.86,3706.09 -9822.6,2436.49 -809.61,-292.38 -1457.56,-741.3 -1889.01,-1322.04 -437.69,-589.14 -651.08,-1307.64 -584.1,-2129.96 29.58,-362.99 114.68,-747.24 260.3,-1150.47l998.32 -2764.34c-586.23,-486.15 -912.27,-1031.79 -1020.66,-1626.84 -115.21,-632.48 20.52,-1308.32 354.2,-2017.95 404.51,-860.25 622.28,-1540.66 814.68,-2477.45 222.64,-1084.12 800.95,-1596.65 1580.3,-1807.57 529.32,-143.25 1141.51,-32.92 1793.77,-80.23 359.83,-26.1 421.23,218.31 358.88,-425.31 -85.03,-877.92 78.14,-1745.12 437.83,-2523.14 635.16,-1373.89 1850.75,-2413.11 3310.29,-2817.78 1177.72,-326.52 2545.63,-253.44 3977.32,408.45 1690.61,781.6 2693.28,2193.53 3686.51,3592.17 566.2,797.32 1129.27,1590.21 1809.44,2241.84 144.52,138.46 285.63,264.01 424.11,377.52 43.2,35.41 86.54,69.95 130.01,103.63 183.96,142.47 97.59,69.95 301.48,30.39 428.8,-83.2 1042.56,232.87 1173.84,612.28 117.24,163.2 -70.97,137.05 223.79,215.29 701.53,186.21 1448.19,216.67 2169.04,213.75l9847.92 -40.06c226.4,-0.92 111.82,-17.1 274.4,-138.48 336.05,-250.92 1074.09,-226.11 1381.67,16.42 140.74,111.01 42.79,115.62 246.3,113.7 1790.66,-17.05 2932.62,-426.88 4022.76,-818.15 3895.26,-1398.07 8316.17,-888.19 10084.78,3387.59 686.24,1659.01 701.55,3604.33 -149.14,5207.87 -2160.37,4072.31 -6991,3325.19 -10493.81,1752.6 -1073.96,-482.15 -2109.37,-946.89 -3110.04,-1068.34 -259.92,-31.53 -133.71,-21.3 -309.41,96.76zm-15925.63 -9177.48c-57.12,-43.84 -114.69,-89.55 -172.74,-137.13 -150.96,-123.75 -301.46,-257.44 -452.33,-401.97 -712.19,-682.29 -1288.38,-1493.68 -1867.79,-2309.58 -956.29,-1346.64 -1921.7,-2706.08 -3496.47,-3434.13 -1320.24,-610.37 -2573.98,-679.91 -3648.06,-382.12 -1323.82,367.04 -2425.73,1310.29 -3001.76,2556.26 -396.98,858.68 -529.32,1836.13 -311.69,2802.87 435.11,1789.97 2012.61,3181.05 4086.88,4183.27 2477.93,1197.26 5652.06,1834.51 8458.57,1937.17 129.44,4.72 102.18,16.94 102.36,-119.32l0.11 -84.67c0.27,-204.9 41.11,-181.44 -150.26,-187.58 -1487.66,-47.89 -3714.64,-427.59 -5819.44,-1116.87 -1769.56,-579.5 -3458.91,-1379.9 -4565.13,-2390.1 -1131.99,-1033.74 -1581.95,-2112.67 -1553.03,-3048.3 16.07,-519.97 178.99,-994.18 455.01,-1392.52 995.51,-1436.61 2941.15,-1484.59 4410.81,-782.26 1215.63,580.95 2216.07,1705.76 3291.44,2914.82 1090.34,1225.88 2259.93,2540.74 3781.68,3416.36 192.1,110.52 152.18,111.82 157.93,-106.98 4.9,-185.44 13.35,-341.82 27.62,-481.95 43.86,-430.45 165.82,-735.22 310.43,-1130 78.29,-213.73 120.59,-178.81 -44.14,-305.27zm-415.9 5294.39c-2868.61,-104.34 -6117.1,-757.03 -8656.9,-1984.2 -1869.69,-903.37 -3361.74,-2120.48 -4056.04,-3664.41 -228.13,-507.27 -46.64,-454.24 -621.36,-512.16 -666.75,-67.19 -1287.65,-86.62 -1791.74,49.8 -605.03,163.74 -1055.86,570.8 -1234.12,1438.8 -200.32,975.34 -429.21,1688.9 -850.42,2584.71 -292.03,621.07 -412.85,1201.55 -316.57,1730.08 94.84,520.64 405.79,1003.31 978.45,1439.62 2217.15,1689.29 7645.82,1109.47 12159.13,627.39 1632.11,-174.31 3145.91,-336.02 4363.24,-373.89 169.13,-5.24 136.64,19 136.87,-156.8l0.15 -116.41c0.23,-171.22 41.97,-178.04 -111.44,-169.94 -2449.1,129.27 -4273.97,297.75 -5911.48,448.93 -1701,157.04 -3201.09,295.55 -4980.33,352.59 -1069.95,34.31 -2529.81,-42.76 -3724.54,-398.12 -601.9,-179.04 -1140.55,-429.59 -1537.92,-773.22 -418.72,-362.07 -680.24,-822.47 -698.87,-1403.97 -58.97,-1840.1 1432.81,-2328.49 3029.94,-2128.84 1407.63,175.93 3227.84,826.16 5233.75,1658.85 3455.89,1434.61 6055.45,1585.9 8437.38,1724.53 56.86,3.3 113.66,6.62 169.29,9.86 100.81,5.9 103.72,-0.22 99.11,-68.22 -4.4,-65.24 -4.39,-122.85 0.86,-188.13 8.07,-100.19 12.99,-122.15 -116.44,-126.85zm114.1 -1540.97l1.14 -865.18c0.36,-275.65 41.01,-210.4 -196,-338.66 -535.71,-289.92 -1027.23,-629.37 -1485.77,-999.48 -1038.01,-182.91 -2034.45,-413.17 -2959.75,-685.33 -1808.56,-532 -3344.49,-1225.77 -4389.25,-2041.86 -858.64,-670.7 -1392.38,-1426.52 -1488.56,-2248.51 -49.69,-424.75 117.93,-649.4 -371.8,-217.37 -132.83,117.19 -249.92,248.24 -348.88,391.06 -224.68,324.24 -357.28,710.05 -370.36,1132.89 -24.9,805.82 380.03,1750.93 1396.89,2679.53 1051.49,960.22 2678.49,1727.98 4390.15,2288.52 2060.13,674.65 4233.95,1046.11 5681.73,1092.58 184.86,5.93 140.2,11.31 140.46,-188.19zm-10046.68 -7318.03c54.35,720.42 529.35,1397.67 1312.44,2009.35 995.01,777.24 2475.72,1443.26 4229.31,1959.08 666.2,195.95 1371.91,370.02 2105.57,520.08 -684.37,-638.88 -1299.45,-1330.35 -1891.7,-1996.22 -1043.27,-1172.97 -2013.86,-2264.21 -3139.06,-2801.93 -759.85,-363.13 -1494.59,-463.67 -2131.24,-367.38 -513.57,77.65 -527.28,120.83 -485.32,677.02zm-5126.86 6659.46c400.41,236.33 956.05,414.47 1619.06,545.17 997.34,196.6 2222.42,279.9 3528,288.12 -1515.62,-591.17 -2879.56,-1029.64 -3969.88,-1165.91 -384.96,-48.12 -733.75,-57.69 -1040.26,-21.51 -485.2,57.25 -607.46,76.39 -136.92,354.13zm6308.74 1302.21c-1762,42.18 -3462.68,-24.75 -4781.86,-284.8 -809.07,-159.48 -1483,-394.56 -1954.54,-724.92 -347.17,-243.24 -361.4,-479.46 -669.24,79 -51.51,93.43 -94.3,196.51 -127.96,309.69 -67.61,227.29 -95.86,434.14 -89.84,622.11 13.86,432.48 213.47,779.33 533.32,1055.9 341.17,295.03 818.63,514.61 1359.17,675.39 1140.19,339.14 2543.22,412.36 3574.05,379.32 1767.01,-56.65 3259.62,-194.47 4952.09,-350.72 626.86,-57.88 1281,-118.28 1986.04,-178.03 1100.75,-93.27 993.19,-35.38 -8.94,-202.08 -1420.66,-236.32 -2982.39,-639.98 -4772.29,-1380.86zm-6880.76 5259.09c322.33,281.56 742.84,472.32 1208.99,589.86 882.07,222.42 1919.34,183.08 2784.69,-1.08 910.1,-193.68 1776.19,-523.36 2543.99,-880.97 206.96,-96.4 406.59,-194.71 597.93,-292.88 677.05,-347.43 224.46,-199.05 -277.94,-168.62 -1594.09,96.56 -3097.25,30.21 -4675.06,37.69 -676.71,3.22 -1514.84,53.6 -2177.78,319.8 -333.77,134 -292.76,144.68 -4.82,396.2zm8298.34 -671.41c-449.28,257.96 -975.88,544.82 -1557.48,815.7 -794.59,370.09 -1694.48,712.04 -2647.46,914.85 -927.85,197.46 -2044.73,238.46 -3001.07,-2.68 -583.62,-147.16 -1110.06,-399.1 -1505.6,-783.65 -251.26,-244.26 -230.25,-387.78 -482.24,56.49 -118.01,208.06 -188.13,457.82 -194.24,757.51 -16.46,807.1 421.7,1383.6 1122.2,1756.25 1017.29,541.19 2424.78,599.62 3556.45,433.88 1716.14,-251.37 3340.42,-1290.42 5056.19,-2388 1126.99,-720.94 2292.51,-1466.47 3557.02,-2041.44 763.53,-347.15 691.21,-273.26 -108.42,-173.3 -353.92,44.25 -704.38,89.81 -1052.5,135.08 -640.54,83.27 -1273.29,165.56 -1895.27,235.87 -506.01,57.19 -371.62,10.16 -847.58,283.44z"/></g><text x="0" y="50015" fill="#000000" font-size="5px" font-weight="bold" font-family="'Helvetica Neue', Helvetica, Arial-Unicode, Arial, Sans-serif">Created by Oleksandr Panasovskyi</text><text x="0" y="50020" fill="#000000" font-size="5px" font-weight="bold" font-family="'Helvetica Neue', Helvetica, Arial-Unicode, Arial, Sans-serif">from the Noun Project</text></svg>